<svg id="圖層_1" data-name="圖層 1" xmlns="http://www.w3.org/2000/svg" viewBox="0 0 800 183.61"><defs><style>.cls-1{fill:#fff;}</style></defs><path class="cls-1" d="M78.31,137.15q-10.68,0-18.22-4.08a38.65,38.65,0,0,1-12.81-11.25l7.79-6.53a34,34,0,0,0,10.3,9.36,26.49,26.49,0,0,0,13.31,3.2q9.42,0,14.39-4.52t5-12.06q0-6.27-3.77-9.67T81.82,96.2l-7.16-1.63q-12.06-2.76-18.4-8.36T49.92,70.45a23.89,23.89,0,0,1,2.13-10.3,20.85,20.85,0,0,1,6-7.54A27,27,0,0,1,67.19,48a41.37,41.37,0,0,1,11.74-1.57q9.93,0,17,3.64a32.84,32.84,0,0,1,12,10.68L100,66.56a27.31,27.31,0,0,0-8.8-7.92,25.93,25.93,0,0,0-12.81-2.89q-8.42,0-13.25,3.58T60.34,70.07q0,6.29,4.09,9.49T76.8,84.64L84,86.28q12.93,2.88,18.71,8.79t5.78,15.7a27.84,27.84,0,0,1-2.07,10.93,22.31,22.31,0,0,1-6,8.29,27.71,27.71,0,0,1-9.48,5.28A39.57,39.57,0,0,1,78.31,137.15Z"/><path class="cls-1" d="M152.51,137.15a30.18,30.18,0,0,1-12.41-2.47,26.61,26.61,0,0,1-9.48-7.08,32.51,32.51,0,0,1-6.11-11,45.58,45.58,0,0,1-2.14-14.48,45.81,45.81,0,0,1,2.14-14.42,32.33,32.33,0,0,1,6.11-11.11,26.61,26.61,0,0,1,9.48-7.08A30,30,0,0,1,152.51,67a28.58,28.58,0,0,1,12.09,2.46,26.76,26.76,0,0,1,9.09,6.8,30.25,30.25,0,0,1,5.78,10.29,40.41,40.41,0,0,1,2,13.08v4.92H133.28v3.12a23,23,0,0,0,1.37,8,18.94,18.94,0,0,0,3.89,6.43,17.82,17.82,0,0,0,6.24,4.29,21.58,21.58,0,0,0,8.38,1.55,20.42,20.42,0,0,0,11.11-3,19.62,19.62,0,0,0,7.34-8.58l7.41,5.36a25.91,25.91,0,0,1-10.14,11.18A30.58,30.58,0,0,1,152.51,137.15Zm0-61.46a19.78,19.78,0,0,0-7.79,1.49,17.62,17.62,0,0,0-6.05,4.19,19.62,19.62,0,0,0-4,6.4,22.14,22.14,0,0,0-1.43,8.07v.9h37V95.32q0-8.91-4.87-14.27T152.51,75.69Z"/><path class="cls-1" d="M198.64,137.15V70.1H209V82.45h.65a20.25,20.25,0,0,1,6.5-8.58Q220.86,70.1,229,70.1h4V80.5H227q-8.44,0-13.19,3.18t-4.74,8v45.48Z"/><path class="cls-1" d="M262.43,137.15,238.91,70.1h10.4L261,103.37l7.28,22.87h.65l7.27-22.87,12-33.27h10l-23.64,67.05Z"/><path class="cls-1" d="M316.74,60.34c-2.25,0-3.88-.54-4.87-1.62a6,6,0,0,1-1.49-4.22V52.81a6,6,0,0,1,1.49-4.23c1-1.08,2.62-1.62,4.87-1.62s3.88.54,4.87,1.62a6,6,0,0,1,1.5,4.23V54.5a6,6,0,0,1-1.5,4.22C320.62,59.8,319,60.34,316.74,60.34Zm-5.2,9.76h10.4v67.05h-10.4Z"/><path class="cls-1" d="M369,137.15a31,31,0,0,1-12.6-2.47,25.68,25.68,0,0,1-9.42-7,31.45,31.45,0,0,1-5.85-11,49.12,49.12,0,0,1-2-14.55,49.12,49.12,0,0,1,2-14.55,31.41,31.41,0,0,1,5.85-11,25.76,25.76,0,0,1,9.42-7A30.8,30.8,0,0,1,369,67q10,0,16,4.35a26.49,26.49,0,0,1,9,11.37l-8.7,4.41a15.86,15.86,0,0,0-6-8.05A18,18,0,0,0,369,76.21a20.69,20.69,0,0,0-8.18,1.5,16,16,0,0,0-5.85,4.15,17.53,17.53,0,0,0-3.51,6.37,26.87,26.87,0,0,0-1.17,8.12v11.44q0,8.83,4.75,14.48t14,5.65q12.61,0,18.2-11.69l7.53,5.07A26.58,26.58,0,0,1,385,132.86Q378.59,137.15,369,137.15Z"/><path class="cls-1" d="M433.81,137.15a30.18,30.18,0,0,1-12.41-2.47,26.61,26.61,0,0,1-9.48-7.08,32.34,32.34,0,0,1-6.11-11,45.58,45.58,0,0,1-2.14-14.48,45.81,45.81,0,0,1,2.14-14.42,32.16,32.16,0,0,1,6.11-11.11,26.61,26.61,0,0,1,9.48-7.08A30,30,0,0,1,433.81,67a28.5,28.5,0,0,1,12.08,2.46,26.79,26.79,0,0,1,9.1,6.8,30.25,30.25,0,0,1,5.78,10.29,40.68,40.68,0,0,1,2,13.08v4.92H414.58v3.12a23,23,0,0,0,1.36,8,19,19,0,0,0,3.9,6.43,17.82,17.82,0,0,0,6.24,4.29,21.58,21.58,0,0,0,8.38,1.55,20.42,20.42,0,0,0,11.11-3,19.62,19.62,0,0,0,7.34-8.58l7.41,5.36a25.91,25.91,0,0,1-10.14,11.18A30.58,30.58,0,0,1,433.81,137.15Zm0-61.46a19.83,19.83,0,0,0-7.8,1.49,17.67,17.67,0,0,0-6,4.19,19.62,19.62,0,0,0-4,6.4,22.14,22.14,0,0,0-1.43,8.07v.9h37V95.32q0-8.91-4.87-14.27T433.81,75.69Z"/><path class="cls-1" d="M481,137.15V46.46H517.1q12.21,0,18.77,6.95t6.56,19q0,12.09-6.56,19t-18.77,7H491.89v38.72Zm10.92-48.34H517.1q6.49,0,10.07-3.37t3.57-9.62V69.07q0-6.24-3.57-9.62T517.1,56.07H491.89Z"/><path class="cls-1" d="M569.72,137.15q-5.46,0-8.25-2.86a9.88,9.88,0,0,1-2.8-7.23V47.2h10.4v81.32h9.87v8.63Z"/><path class="cls-1" d="M619.22,137.15a30.18,30.18,0,0,1-12.41-2.47,26.61,26.61,0,0,1-9.48-7.08,32.34,32.34,0,0,1-6.11-11,45.58,45.58,0,0,1-2.14-14.48,45.81,45.81,0,0,1,2.14-14.42,32.16,32.16,0,0,1,6.11-11.11,26.61,26.61,0,0,1,9.48-7.08A30,30,0,0,1,619.22,67a28.5,28.5,0,0,1,12.08,2.46,26.79,26.79,0,0,1,9.1,6.8,30.25,30.25,0,0,1,5.78,10.29,40.68,40.68,0,0,1,2,13.08v4.92H600v3.12a23,23,0,0,0,1.36,8,19,19,0,0,0,3.9,6.43,17.82,17.82,0,0,0,6.24,4.29,21.58,21.58,0,0,0,8.38,1.55,20.42,20.42,0,0,0,11.11-3,19.62,19.62,0,0,0,7.34-8.58l7.41,5.36a25.91,25.91,0,0,1-10.14,11.18A30.58,30.58,0,0,1,619.22,137.15Zm0-61.46a19.83,19.83,0,0,0-7.8,1.49,17.67,17.67,0,0,0-6,4.19,19.62,19.62,0,0,0-4,6.4A22.14,22.14,0,0,0,600,95.84v.9h37V95.32q0-8.91-4.87-14.27T619.22,75.69Z"/><path class="cls-1" d="M752.72,46.46H735.58L715.45,68.72,707,46.46H675.69l17.65,46.72-39.74,44h17.14l27.65-30.6L710,137.15h31.35L720.5,82.1Zm-55.18,54.88,6.07-50.12,11.49,30Z"/></svg>